<svg width="493pt" height="47pt" viewBox="-0.4 -0.4 493 48" xmlns="http://www.w3.org/2000/svg"><g id="fontsvg1680865215888" stroke-linecap="round" fill-rule="evenodd" stroke="#000000" stroke-width="0.2mm" fill="#000000"><path d="M 267.188 42.188 L 257.813 42.188 L 257.813 0 L 262.5 0 L 262.5 4.688 L 267.188 4.688 L 267.188 9.375 L 271.875 9.375 L 271.875 14.063 L 276.563 14.063 L 276.563 9.375 L 281.25 9.375 L 281.25 4.688 L 285.938 4.688 L 285.938 0 L 290.625 0 L 290.625 42.188 L 281.25 42.188 L 281.25 18.75 L 276.563 18.75 L 276.563 23.438 L 271.875 23.438 L 271.875 18.75 L 267.188 18.75 L 267.188 42.188 Z M 56.25 42.188 L 37.5 42.188 L 37.5 37.5 L 32.813 37.5 L 32.813 28.125 L 42.188 28.125 L 42.188 37.5 L 51.563 37.5 L 51.563 4.688 L 46.875 4.688 L 46.875 0 L 60.938 0 L 60.938 37.5 L 56.25 37.5 L 56.25 42.188 Z M 131.25 42.188 L 112.5 42.188 L 112.5 37.5 L 107.813 37.5 L 107.813 14.063 L 112.5 14.063 L 112.5 9.375 L 131.25 9.375 L 131.25 14.063 L 135.938 14.063 L 135.938 28.125 L 117.188 28.125 L 117.188 37.5 L 126.563 37.5 L 126.563 32.813 L 135.938 32.813 L 135.938 37.5 L 131.25 37.5 L 131.25 42.188 Z M 206.25 42.188 L 187.5 42.188 L 187.5 37.5 L 182.813 37.5 L 182.813 14.063 L 187.5 14.063 L 187.5 9.375 L 206.25 9.375 L 206.25 14.063 L 210.938 14.063 L 210.938 28.125 L 192.188 28.125 L 192.188 37.5 L 201.563 37.5 L 201.563 32.813 L 210.938 32.813 L 210.938 37.5 L 206.25 37.5 L 206.25 42.188 Z M 239.063 42.188 L 229.688 42.188 L 229.688 37.5 L 225 37.5 L 225 32.813 L 220.313 32.813 L 220.313 9.375 L 229.688 9.375 L 229.688 32.813 L 239.063 32.813 L 239.063 9.375 L 248.438 9.375 L 248.438 32.813 L 243.75 32.813 L 243.75 37.5 L 239.063 37.5 L 239.063 42.188 Z M 328.125 42.188 L 304.688 42.188 L 304.688 37.5 L 300 37.5 L 300 28.125 L 304.688 28.125 L 304.688 23.438 L 318.75 23.438 L 318.75 14.063 L 309.375 14.063 L 309.375 18.75 L 300 18.75 L 300 14.063 L 304.688 14.063 L 304.688 9.375 L 323.438 9.375 L 323.438 14.063 L 328.125 14.063 L 328.125 42.188 Z M 23.438 42.188 L 18.75 42.188 L 18.75 37.5 L 14.063 37.5 L 14.063 32.813 L 9.375 32.813 L 9.375 28.125 L 4.688 28.125 L 4.688 23.438 L 0 23.438 L 0 18.75 L 4.688 18.75 L 4.688 14.063 L 9.375 14.063 L 9.375 9.375 L 14.063 9.375 L 14.063 4.688 L 18.75 4.688 L 18.75 0 L 23.438 0 L 23.438 9.375 L 18.75 9.375 L 18.75 14.063 L 14.063 14.063 L 14.063 18.75 L 9.375 18.75 L 9.375 23.438 L 14.063 23.438 L 14.063 28.125 L 18.75 28.125 L 18.75 32.813 L 23.438 32.813 L 23.438 42.188 Z M 473.438 42.188 L 468.75 42.188 L 468.75 32.813 L 473.438 32.813 L 473.438 28.125 L 478.125 28.125 L 478.125 23.438 L 482.813 23.438 L 482.813 18.75 L 478.125 18.75 L 478.125 14.063 L 473.438 14.063 L 473.438 9.375 L 468.75 9.375 L 468.75 0 L 473.438 0 L 473.438 4.688 L 478.125 4.688 L 478.125 9.375 L 482.813 9.375 L 482.813 14.063 L 487.5 14.063 L 487.5 18.75 L 492.188 18.75 L 492.188 23.438 L 487.5 23.438 L 487.5 28.125 L 482.813 28.125 L 482.813 32.813 L 478.125 32.813 L 478.125 37.5 L 473.438 37.5 L 473.438 42.188 Z M 360.938 42.188 L 346.875 42.188 L 346.875 37.5 L 342.188 37.5 L 342.188 14.063 L 337.5 14.063 L 337.5 9.375 L 342.188 9.375 L 342.188 0 L 351.563 0 L 351.563 9.375 L 360.938 9.375 L 360.938 14.063 L 351.563 14.063 L 351.563 37.5 L 360.938 37.5 L 360.938 42.188 Z M 393.75 42.188 L 379.688 42.188 L 379.688 37.5 L 375 37.5 L 375 14.063 L 370.313 14.063 L 370.313 9.375 L 375 9.375 L 375 0 L 384.375 0 L 384.375 9.375 L 393.75 9.375 L 393.75 14.063 L 384.375 14.063 L 384.375 37.5 L 393.75 37.5 L 393.75 42.188 Z M 440.625 46.875 L 431.25 46.875 L 431.25 37.5 L 435.938 37.5 L 435.938 28.125 L 440.625 28.125 L 440.625 18.75 L 445.313 18.75 L 445.313 9.375 L 450 9.375 L 450 0 L 459.375 0 L 459.375 9.375 L 454.688 9.375 L 454.688 18.75 L 450 18.75 L 450 28.125 L 445.313 28.125 L 445.313 37.5 L 440.625 37.5 L 440.625 46.875 Z M 168.75 42.188 L 145.313 42.188 L 145.313 0 L 168.75 0 L 168.75 4.688 L 173.438 4.688 L 173.438 37.5 L 168.75 37.5 L 168.75 42.188 Z M 93.75 42.188 L 75 42.188 L 75 37.5 L 70.313 37.5 L 70.313 14.063 L 75 14.063 L 75 9.375 L 93.75 9.375 L 93.75 14.063 L 98.438 14.063 L 98.438 37.5 L 93.75 37.5 L 93.75 42.188 Z M 154.688 37.5 L 164.063 37.5 L 164.063 4.688 L 154.688 4.688 L 154.688 37.5 Z M 79.688 37.5 L 89.063 37.5 L 89.063 14.063 L 79.688 14.063 L 79.688 37.5 Z M 117.188 23.438 L 126.563 23.438 L 126.563 14.063 L 117.188 14.063 L 117.188 23.438 Z M 192.188 23.438 L 201.563 23.438 L 201.563 14.063 L 192.188 14.063 L 192.188 23.438 Z M 309.375 37.5 L 318.75 37.5 L 318.75 28.125 L 309.375 28.125 L 309.375 37.5 Z" vector-effect="non-scaling-stroke"/></g></svg>